<?xml version="1.0" encoding="UTF-8" standalone="no"?>
<!-- Created with Inkscape (http://www.inkscape.org/) -->

<svg
   xmlns:dc="http://purl.org/dc/elements/1.1/"
   xmlns:cc="http://creativecommons.org/ns#"
   xmlns:rdf="http://www.w3.org/1999/02/22-rdf-syntax-ns#"
   xmlns:svg="http://www.w3.org/2000/svg"
   xmlns="http://www.w3.org/2000/svg"
   xmlns:sodipodi="http://sodipodi.sourceforge.net/DTD/sodipodi-0.dtd"
   xmlns:inkscape="http://www.inkscape.org/namespaces/inkscape"
   width="64"
   height="64"
   viewBox="0 0 64 64"
   version="1.1"
   id="SVGRoot"
   inkscape:export-filename="/home/andrew/bitmap.png"
   inkscape:export-xdpi="1264.0201"
   inkscape:export-ydpi="1264.0201"
   inkscape:version="0.92.5 (2060ec1f9f, 2020-04-08)"
   sodipodi:docname="logo.svg">
  <defs
     id="defs10" />
  <sodipodi:namedview
     id="base"
     pagecolor="#ffffff"
     bordercolor="#666666"
     borderopacity="1.0"
     inkscape:pageopacity="0.0"
     inkscape:pageshadow="2"
     inkscape:zoom="11.313709"
     inkscape:cx="25.876786"
     inkscape:cy="26.920599"
     inkscape:document-units="px"
     inkscape:current-layer="layer1"
     showgrid="false"
     inkscape:window-width="1920"
     inkscape:window-height="1025"
     inkscape:window-x="0"
     inkscape:window-y="600"
     inkscape:window-maximized="1"
     inkscape:grid-bbox="true" />
  <metadata
     id="metadata13">
    <rdf:RDF>
      <cc:Work
         rdf:about="">
        <dc:format>image/svg+xml</dc:format>
        <dc:type
           rdf:resource="http://purl.org/dc/dcmitype/StillImage" />
        <dc:title></dc:title>
      </cc:Work>
    </rdf:RDF>
  </metadata>
  <g
     inkscape:label="Layer 1"
     inkscape:groupmode="layer"
     id="layer1"
     transform="translate(0,48)">
    <path
       style="fill:none;stroke:#000000;stroke-width:2.76938295px;stroke-linecap:butt;stroke-linejoin:miter;stroke-opacity:1"
       d="M 10.578997,-43.99432 C -7.1003279,-25.727443 4.4755041,-58.938269 22.458267,15.351149 22.225443,-19.269634 53.609776,-26.846503 55.87896,6.9729151 57.971738,38.163223 60.631574,-35.45801 59.082494,-44.010818 52.482333,-55.383846 46.918152,20.834055 10.578997,-43.99432 Z"
       id="path29"
       inkscape:connector-curvature="0"
       sodipodi:nodetypes="ccscc" />
    <path
       style="fill:#000000;stroke:none;stroke-width:0.12337134"
       d="M 56.491471,15.795963 C 55.386615,15.340827 55.101875,14.136917 54.585791,7.7385564 54.187813,2.8044584 53.707344,0.1721137 52.635515,-2.9464053 50.330024,-9.6543017 46.159088,-13.476285 41.123541,-13.495255 c -3.210649,-0.01209 -6.183644,1.335116 -8.983746,4.0709777 -5.079056,4.9625319 -7.887293,12.6328915 -8.317784,22.7190143 l -0.08599,2.014878 -1.246417,0.143059 c -0.68553,0.07868 -1.282174,0.106158 -1.325875,0.06106 -0.0437,-0.0451 -0.28341,-0.933746 -0.532686,-1.974767 C 19.889429,10.441891 18.023809,3.4625563 16.958831,-0.19884374 11.764439,-18.057206 6.7451908,-29.498158 1.7483136,-34.869933 0.6251515,-36.077362 0.444123,-36.40794 0.52432582,-37.105065 c 0.0792389,-0.688748 0.35519322,-0.969826 1.72618558,-1.758237 1.9201794,-1.104231 3.7059144,-2.525004 6.2174934,-4.946786 l 2.4311232,-2.344202 1.245809,2.210228 c 6.477077,11.491182 12.709992,19.462125 17.902962,22.895145 7.3092,4.832035 12.927,1.668038 18.727468,-10.547484 0.570318,-1.201063 1.75312,-3.832288 2.628451,-5.847166 1.906427,-4.388314 2.899568,-6.380957 3.706293,-7.436333 0.658174,-0.861038 1.47908,-1.467888 2.153289,-1.591805 0.978787,-0.179898 2.113963,0.448528 2.766029,1.531253 0.343858,0.570959 0.415747,0.845214 0.540721,2.062819 0.363492,3.541462 0.332794,20.156255 -0.0573,31.016917 -0.524788,14.6103326 -1.175746,23.585642 -1.896808,26.15289 -0.350781,1.24891 -1.230949,1.871905 -2.124561,1.503789 z M 22.779182,2.0950766 c 0.880878,-3.08275822 2.434423,-6.6750155 3.855462,-8.9149723 2.442068,-3.8493833 6.001915,-7.0012343 9.416216,-8.3370183 1.980145,-0.774697 2.693246,-0.904047 4.948039,-0.897532 1.691549,0.0049 2.228796,0.05179 3.026774,0.264188 1.095941,0.291719 2.699631,0.996498 3.710169,1.630518 4.561879,2.862166 7.803687,8.9520402 9.032614,16.9681549 0.16436,1.0720981 0.307306,1.6515214 0.309994,1.2565505 3.74e-4,-0.061565 0.08328,-1.5406703 0.18413,-3.28689836 0.238736,-4.13367884 0.516156,-10.74459434 0.707163,-16.85171104 0.21089,-6.742879 0.215202,-23.52727 0.0066,-25.753648 -0.08746,-0.933471 -0.190779,-1.747581 -0.229609,-1.809134 -0.196873,-0.312086 -1.094755,1.060563 -2.103335,3.215499 -0.326348,0.697271 -1.25284,2.778925 -2.058871,4.625896 -3.430565,7.860923 -5.512844,11.602457 -8.121236,14.592605 -2.134441,2.446832 -4.475812,4.043599 -6.788274,4.629468 -1.06116,0.268849 -4.033536,0.265861 -5.14668,-0.0052 -4.378861,-1.066198 -9.233174,-5.036946 -14.461149,-11.829008 -2.526618,-3.282521 -6.094546,-8.686791 -8.286514,-12.551422 l -0.469911,-0.828494 -0.8905139,0.798516 c -1.3382682,1.200013 -3.6346614,3.008349 -4.7268628,3.722252 l -0.9695882,0.63376 0.5708005,0.621991 c 2.4117225,2.628012 5.5502282,8.213193 8.2460664,14.674427 2.608535,6.25199 5.47771,14.8467346 7.953066,23.8237739 0.592629,2.1492038 1.108688,3.99007 1.146798,4.0908139 0.03811,0.100744 0.221853,-0.5586708 0.40832,-1.4653661 0.186465,-0.9066954 0.515124,-2.2648094 0.730351,-3.0180321 z"
       id="path76"
       inkscape:connector-curvature="0" />
    <path
       style="fill:#000000;stroke:none;stroke-width:0.12337134"
       d="M 56.491471,15.795963 C 55.392747,15.343355 55.102701,14.131621 54.588442,7.8456249 54.224767,3.4002744 53.999361,1.9189914 53.264261,-0.8564151 50.715399,-10.47978 44.634105,-15.203055 37.695892,-12.948199 33.854364,-11.699736 30.23145,-8.2120727 27.76067,-3.3838767 25.358457,1.31033 24.120692,6.5551394 23.824549,13.294737 l -0.08854,2.014878 -1.246418,0.143059 c -0.68553,0.07868 -1.279121,0.106158 -1.319091,0.06106 -0.03997,-0.0451 -0.564013,-2.02783 -1.164538,-4.406063 -4.03018,-15.9605655 -8.308841,-28.642133 -12.4873824,-37.011477 -2.0033139,-4.012507 -3.7688865,-6.778057 -5.5734241,-8.730079 -1.29224111,-1.397855 -1.48753262,-1.729803 -1.42184759,-2.416794 0.0687307,-0.718846 0.32748912,-1.007885 1.51284039,-1.689874 2.2153954,-1.274624 3.7361479,-2.482019 6.6231479,-5.258422 l 2.2484938,-2.162358 0.734816,1.306038 c 4.256723,7.565766 8.100652,13.32435 11.794485,17.669294 1.561434,1.836669 4.245762,4.408518 5.749819,5.508887 7.203121,5.269811 12.527119,3.176744 18.205877,-7.157424 0.812959,-1.479416 2.103502,-4.256667 3.972103,-8.547969 3.034989,-6.969953 4.073923,-8.604074 5.751656,-9.046677 1.127031,-0.297324 2.402182,0.433508 3.107309,1.780903 0.310325,0.592984 0.484254,2.779248 0.573175,7.204717 0.09828,4.890966 -0.02705,18.541692 -0.219746,23.934314 -0.436935,12.2280458 -0.864988,19.7058817 -1.387545,24.239599 -0.457994,3.973559 -0.793631,4.87877 -1.899577,5.123144 -0.273658,0.06047 -0.562818,0.03964 -0.798696,-0.05753 z M 21.924434,5.6931494 c 0.611185,-3.375725 1.921534,-7.2764867 3.442263,-10.2472343 1.396147,-2.7273787 2.746898,-4.5870114 4.781229,-6.5825131 2.766023,-2.713224 5.503985,-4.233403 8.687954,-4.823745 1.412227,-0.261842 3.776298,-0.178351 5.198568,0.183596 5.29579,1.347702 9.497133,6.2204402 11.600051,13.4537905 0.398971,1.37233497 1.024364,4.2279478 1.267495,5.7875282 l 0.09519,0.6105693 0.0937,-0.7937401 c 0.18169,-1.5390692 0.631912,-11.5175115 0.878801,-19.4771589 0.204247,-6.584951 0.205554,-23.415585 0.002,-25.642708 -0.08588,-0.939616 -0.20507,-1.75632 -0.26486,-1.814898 -0.155353,-0.152202 -0.800915,0.761437 -1.504197,2.128835 -0.330948,0.643464 -1.385388,2.951416 -2.343202,5.128782 -2.74046,6.229798 -4.249833,9.271031 -5.876547,11.840639 -2.294801,3.624941 -5.268179,6.425843 -8.007655,7.54316 -1.426795,0.58193 -2.004002,0.663918 -4.252983,0.604108 -1.80203,-0.04793 -2.120215,-0.08958 -3.012013,-0.394387 -4.409307,-1.507025 -8.930623,-5.386857 -13.904315,-11.931576 -2.415468,-3.178437 -5.563651,-7.953896 -7.773646,-11.791794 l -0.719979,-1.250322 -1.1610797,1.027384 c -1.4986984,1.326127 -3.5113898,2.897742 -4.5827286,3.578434 l -0.8452022,0.537012 0.5810377,0.632728 c 2.9716329,3.235999 6.9290818,10.813866 10.0876208,19.316148 2.212563,5.955863 5.226178,15.5837656 6.927861,22.1331347 0.161417,0.6212547 0.32743,1.1295531 0.36892,1.1295531 0.04149,0 0.147565,-0.3983959 0.235726,-0.8853254 z"
       id="path78"
       inkscape:connector-curvature="0" />
    <path
       style="fill:#1a1a1a;stroke:none;stroke-width:0.12433734"
       d="M 57.257711,15.17087 C 56.150383,14.714718 55.858064,13.493497 55.339773,7.1582808 54.973257,2.6781232 54.746089,1.1852418 54.005229,-1.6118965 51.436412,-11.310612 45.307496,-16.070871 38.314963,-13.798358 34.44335,-12.540121 30.792071,-9.0251491 28.301946,-4.1591484 25.880922,0.57181456 24.633465,5.8576908 24.335004,12.650059 l -0.08923,2.030655 -1.256177,0.144179 c -0.690898,0.0793 -1.289136,0.10699 -1.329419,0.06154 -0.04029,-0.04546 -0.56843,-2.043707 -1.173656,-4.440563 -4.061738,-16.0855364 -8.3739,-28.866399 -12.5851596,-37.301276 -2.0190003,-4.043925 -3.7983963,-6.83113 -5.6170634,-8.798436 -1.30235991,-1.4088 -1.49918024,-1.743348 -1.4329815,-2.435717 0.0692709,-0.724476 0.3300534,-1.015777 1.524686,-1.703107 2.232741,-1.284603 3.7654021,-2.501452 6.6750067,-5.299594 l 2.2661008,-2.17929 0.740569,1.316264 c 4.290054,7.625006 8.164081,13.428681 11.886836,17.807645 1.573661,1.851051 4.279006,4.443036 5.794841,5.552021 7.259523,5.311075 12.625201,3.201618 18.348433,-7.213466 0.819315,-1.491 2.119967,-4.289997 4.003204,-8.6149 3.058749,-7.024528 4.10582,-8.671443 5.79669,-9.117513 1.135856,-0.299651 2.420992,0.436903 3.13164,1.794847 0.312751,0.597628 0.488047,2.801011 0.57766,7.261131 0.09902,4.929262 -0.02722,18.686874 -0.221464,24.12172 -0.440364,12.323792 -0.871764,19.860179 -1.398411,24.429395 -0.461583,4.004673 -0.799851,4.916972 -1.914457,5.163259 -0.275798,0.06094 -0.56722,0.03996 -0.804947,-0.05798 z M 22.420011,4.9889515 c 0.61597,-3.4021569 1.93658,-7.3334618 3.469216,-10.3274706 1.407079,-2.7487341 2.768407,-4.6229273 4.818666,-6.6340539 2.787681,-2.734469 5.547081,-4.26655 8.755978,-4.861515 1.423289,-0.263892 3.805872,-0.179747 5.239272,0.185034 5.337261,1.358254 9.571501,6.269146 11.69088,13.5591334 0.402095,1.38308 1.032383,4.2610526 1.277419,5.8328445 l 0.09592,0.61535 0.09443,-0.7999549 c 0.183113,-1.5511201 0.636859,-11.6076945 0.885684,-19.629665 0.205849,-6.636511 0.207165,-23.598929 0.002,-25.84349 -0.08655,-0.946974 -0.206676,-1.770073 -0.266933,-1.829109 -0.15657,-0.153394 -0.80719,0.767399 -1.515973,2.145504 -0.333542,0.648501 -1.396237,2.974524 -2.361553,5.16894 -2.761912,6.278576 -4.28311,9.343623 -5.922558,11.933351 -2.312773,3.653324 -5.309431,6.476158 -8.070356,7.602223 -1.437967,0.586487 -2.019695,0.669117 -4.286281,0.608838 -1.81614,-0.04831 -2.136819,-0.09029 -3.035599,-0.397474 -4.443833,-1.518825 -9.000551,-5.429036 -14.013187,-12.025001 -2.434382,-3.203324 -5.607215,-8.016176 -7.834515,-11.884124 l -0.725615,-1.260111 -1.1701725,1.035427 c -1.5104329,1.336511 -3.5388831,2.920431 -4.6186109,3.606453 l -0.8518199,0.541218 0.585588,0.637682 c 2.9948996,3.261336 6.9833363,10.898539 10.1666063,19.467393 2.229887,6.002498 5.267099,15.7057863 6.982106,22.3064375 0.162682,0.6261191 0.329994,1.1383975 0.371809,1.1383975 0.04182,0 0.148721,-0.4015154 0.237572,-0.8922575 z"
       id="path78-3"
       inkscape:connector-curvature="0" />
    <path
       style="fill:#999999;stroke:none;stroke-width:0.08723672"
       d="M 56.831331,14.839407 C 55.6526,14.439597 55.377569,13.292082 54.848576,6.566735 54.620066,3.6615899 54.402158,1.9741397 54.011617,0.0854507 52.338861,-8.0041316 48.419637,-13.246785 43.261012,-14.295382 c -1.626776,-0.330677 -3.788612,-0.168538 -5.4409,0.408068 -0.933847,0.325889 -2.370114,1.078074 -3.325581,1.741636 -0.939495,0.652471 -2.885936,2.4939863 -3.669905,3.4720733 -2.359036,2.9431606 -4.212251,6.8131155 -5.316488,11.10209 -0.815076,3.1658484 -1.224688,6.2191215 -1.380523,10.2905117 -0.03317,0.866713 -0.06475,1.578412 -0.07018,1.581554 -0.09336,0.05406 -2.580407,0.308635 -2.61607,0.267776 -0.02766,-0.03169 -0.400097,-1.456449 -0.827639,-3.166131 -5.35292,-21.405575 -10.8624995,-36.417932 -16.2804335,-44.360492 -0.782804,-1.147572 -1.5583418,-2.112728 -2.532944,-3.152244 -1.00745719,-1.074559 -1.19477144,-1.518364 -0.9620454,-2.27938 0.14765026,-0.482818 0.5250017,-0.818024 1.6655699,-1.479547 2.2036249,-1.278091 3.5969151,-2.394361 6.5149421,-5.219611 1.1885709,-1.150782 2.1663459,-2.093049 2.1728319,-2.093928 0.0065,-8.78e-4 0.499814,0.862958 1.096281,1.919636 8.705273,15.421888 16.337459,23.935622 22.590692,25.2 4.834086,0.977432 9.059755,-2.462008 13.35254,-10.868166 0.897531,-1.757551 1.59205,-3.271769 3.358162,-7.321609 1.772905,-4.065414 2.48269,-5.573987 3.105341,-6.600074 0.932119,-1.536072 1.684906,-2.280965 2.573782,-2.546791 0.588662,-0.176045 0.920662,-0.163731 1.523061,0.05649 0.623701,0.228009 1.367854,0.935075 1.715553,1.630051 0.444581,0.888626 0.58802,3.235493 0.65949,10.790215 0.139644,14.761038 -0.75549,37.7151432 -1.780688,45.662584 -0.239854,1.859369 -0.47038,2.885144 -0.763037,3.395295 -0.354121,0.617298 -1.139035,0.926087 -1.791494,0.704781 z M 22.064533,5.4485835 c 0,-0.021345 0.120098,-0.6333323 0.266885,-1.3599732 0.997704,-4.93895222 2.968918,-9.7345272 5.396941,-13.1296937 1.786852,-2.4985986 4.568954,-5.0619656 6.819777,-6.2835886 1.641701,-0.891026 3.091431,-1.402322 4.790866,-1.689662 1.013165,-0.171306 3.472756,-0.121399 4.450066,0.0903 5.456187,1.181855 9.729058,5.796288 11.957373,12.9132021 0.577574,1.8446909 1.161082,4.4278589 1.402786,6.2100793 0.189785,1.3993954 0.208864,1.2236325 0.519464,-4.7853448 0.170173,-3.2922528 0.359867,-7.8870606 0.529374,-12.8226086 0.20321,-5.9169 0.302811,-17.376923 0.194368,-22.36401 -0.119948,-5.516248 -0.221721,-6.969489 -0.482222,-6.885667 -0.207633,0.06681 -0.855934,1.071655 -1.462016,2.266074 -0.337376,0.664876 -1.353479,2.896902 -2.258006,4.960059 -4.346724,9.914539 -6.398486,13.421867 -9.708464,16.595853 -1.912937,1.834343 -3.86985,2.948256 -5.97741,3.402461 -0.977276,0.210614 -3.64135,0.135815 -4.713335,-0.132335 -3.757682,-0.939965 -7.893285,-3.991357 -12.147783,-8.963056 -3.180315,-3.716434 -7.108625,-9.404139 -10.16283,-14.714507 -0.456127,-0.793072 -0.86212,-1.443917 -0.902204,-1.446322 -0.04008,-0.0024 -0.496183,0.381835 -1.0135526,0.853864 -1.592259,1.452721 -3.7676803,3.145061 -4.9331229,3.837658 l -0.5551848,0.329933 0.2026446,0.243832 c 0.1114545,0.134109 0.4740614,0.567266 0.8057931,0.962575 0.7043117,0.839294 2.3595437,3.258433 3.1234204,4.564912 4.3385072,7.420264 8.7617642,19.25917 13.0240762,34.8591112 0.379543,1.3891163 0.722078,2.525666 0.761187,2.525666 0.03911,0 0.07111,-0.017467 0.07111,-0.038803 z"
       id="path102"
       inkscape:connector-curvature="0" />
  </g>
</svg>
